<svg width="81" height="14" viewBox="0 0 81 14" fill="none" xmlns="http://www.w3.org/2000/svg">
<g id="Group 1000002026">
<path id="Union" fill-rule="evenodd" clip-rule="evenodd" d="M80.074 0V6.49771V7V7.49771L72.2812 7.49771L73.6096 8.82613C73.8048 9.0214 73.8048 9.33798 73.6096 9.53324C73.4143 9.7285 73.0977 9.7285 72.9025 9.53324L70.7205 7.35126C70.5252 7.156 70.5252 6.83942 70.7205 6.64415L72.9025 4.46217C73.0977 4.26691 73.4143 4.26691 73.6096 4.46217C73.8048 4.65743 73.8048 4.97402 73.6096 5.16928L72.2812 6.49771L79.274 6.49771V0H80.074ZM1.09005 4.636C1.30605 4.26 1.62605 3.948 2.05005 3.7C2.48205 3.444 2.98205 3.316 3.55005 3.316C4.13405 3.316 4.66205 3.456 5.13405 3.736C5.61405 4.016 5.99005 4.412 6.26205 4.924C6.53405 5.428 6.67005 6.016 6.67005 6.688C6.67005 7.352 6.53405 7.944 6.26205 8.464C5.99005 8.984 5.61405 9.388 5.13405 9.676C4.66205 9.964 4.13405 10.108 3.55005 10.108C2.99005 10.108 2.49405 9.984 2.06205 9.736C1.63805 9.48 1.31405 9.164 1.09005 8.788V13.12H-0.00195312V3.424H1.09005V4.636ZM5.55405 6.688C5.55405 6.192 5.45405 5.76 5.25405 5.392C5.05405 5.024 4.78205 4.744 4.43805 4.552C4.10205 4.36 3.73005 4.264 3.32205 4.264C2.92205 4.264 2.55005 4.364 2.20605 4.564C1.87005 4.756 1.59805 5.04 1.39005 5.416C1.19005 5.784 1.09005 6.212 1.09005 6.7C1.09005 7.196 1.19005 7.632 1.39005 8.008C1.59805 8.376 1.87005 8.66 2.20605 8.86C2.55005 9.052 2.92205 9.148 3.32205 9.148C3.73005 9.148 4.10205 9.052 4.43805 8.86C4.78205 8.66 5.05405 8.376 5.25405 8.008C5.45405 7.632 5.55405 7.192 5.55405 6.688ZM9.19942 4.492C9.39142 4.116 9.66342 3.824 10.0154 3.616C10.3754 3.408 10.8114 3.304 11.3234 3.304V4.432H11.0354C9.81142 4.432 9.19942 5.096 9.19942 6.424V10H8.10742V3.424H9.19942V4.492ZM18.584 6.46C18.584 6.668 18.572 6.888 18.548 7.12H13.292C13.332 7.768 13.552 8.276 13.952 8.644C14.36 9.004 14.852 9.184 15.428 9.184C15.9 9.184 16.292 9.076 16.604 8.86C16.924 8.636 17.148 8.34 17.276 7.972H18.452C18.276 8.604 17.924 9.12 17.396 9.52C16.868 9.912 16.212 10.108 15.428 10.108C14.804 10.108 14.244 9.968 13.748 9.688C13.26 9.408 12.876 9.012 12.596 8.5C12.316 7.98 12.176 7.38 12.176 6.7C12.176 6.02 12.312 5.424 12.584 4.912C12.856 4.4 13.236 4.008 13.724 3.736C14.22 3.456 14.788 3.316 15.428 3.316C16.052 3.316 16.604 3.452 17.084 3.724C17.564 3.996 17.932 4.372 18.188 4.852C18.452 5.324 18.584 5.86 18.584 6.46ZM17.456 6.232C17.456 5.816 17.364 5.46 17.18 5.164C16.996 4.86 16.744 4.632 16.424 4.48C16.112 4.32 15.764 4.24 15.38 4.24C14.828 4.24 14.356 4.416 13.964 4.768C13.58 5.12 13.36 5.608 13.304 6.232H17.456ZM22.3534 10.108C21.8494 10.108 21.3974 10.024 20.9974 9.856C20.5974 9.68 20.2814 9.44 20.0494 9.136C19.8174 8.824 19.6894 8.468 19.6654 8.068H20.7934C20.8254 8.396 20.9774 8.664 21.2494 8.872C21.5294 9.08 21.8934 9.184 22.3414 9.184C22.7574 9.184 23.0854 9.092 23.3254 8.908C23.5654 8.724 23.6854 8.492 23.6854 8.212C23.6854 7.924 23.5574 7.712 23.3014 7.576C23.0454 7.432 22.6494 7.292 22.1134 7.156C21.6254 7.028 21.2254 6.9 20.9134 6.772C20.6094 6.636 20.3454 6.44 20.1214 6.184C19.9054 5.92 19.7974 5.576 19.7974 5.152C19.7974 4.816 19.8974 4.508 20.0974 4.228C20.2974 3.948 20.5814 3.728 20.9494 3.568C21.3174 3.4 21.7374 3.316 22.2094 3.316C22.9374 3.316 23.5254 3.5 23.9734 3.868C24.4214 4.236 24.6614 4.74 24.6934 5.38H23.6014C23.5774 5.036 23.4374 4.76 23.1814 4.552C22.9334 4.344 22.5974 4.24 22.1734 4.24C21.7814 4.24 21.4694 4.324 21.2374 4.492C21.0054 4.66 20.8894 4.88 20.8894 5.152C20.8894 5.368 20.9574 5.548 21.0934 5.692C21.2374 5.828 21.4134 5.94 21.6214 6.028C21.8374 6.108 22.1334 6.2 22.5094 6.304C22.9814 6.432 23.3654 6.56 23.6614 6.688C23.9574 6.808 24.2094 6.992 24.4174 7.24C24.6334 7.488 24.7454 7.812 24.7534 8.212C24.7534 8.572 24.6534 8.896 24.4534 9.184C24.2534 9.472 23.9694 9.7 23.6014 9.868C23.2414 10.028 22.8254 10.108 22.3534 10.108ZM28.6229 10.108C28.1189 10.108 27.6669 10.024 27.2669 9.856C26.8669 9.68 26.5509 9.44 26.3189 9.136C26.0869 8.824 25.9589 8.468 25.9349 8.068H27.0629C27.0949 8.396 27.2469 8.664 27.5189 8.872C27.7989 9.08 28.1629 9.184 28.6109 9.184C29.0269 9.184 29.3549 9.092 29.5949 8.908C29.8349 8.724 29.9549 8.492 29.9549 8.212C29.9549 7.924 29.8269 7.712 29.5709 7.576C29.3149 7.432 28.9189 7.292 28.3829 7.156C27.8949 7.028 27.4949 6.9 27.1829 6.772C26.8789 6.636 26.6149 6.44 26.3909 6.184C26.1749 5.92 26.0669 5.576 26.0669 5.152C26.0669 4.816 26.1669 4.508 26.3669 4.228C26.5669 3.948 26.8509 3.728 27.2189 3.568C27.5869 3.4 28.0069 3.316 28.4789 3.316C29.2069 3.316 29.7949 3.5 30.2429 3.868C30.6909 4.236 30.9309 4.74 30.9629 5.38H29.8709C29.8469 5.036 29.7069 4.76 29.4509 4.552C29.2029 4.344 28.8669 4.24 28.4429 4.24C28.0509 4.24 27.7389 4.324 27.5069 4.492C27.2749 4.66 27.1589 4.88 27.1589 5.152C27.1589 5.368 27.2269 5.548 27.3629 5.692C27.5069 5.828 27.6829 5.94 27.8909 6.028C28.1069 6.108 28.4029 6.2 28.7789 6.304C29.2509 6.432 29.6349 6.56 29.9309 6.688C30.2269 6.808 30.4789 6.992 30.6869 7.24C30.9029 7.488 31.0149 7.812 31.0229 8.212C31.0229 8.572 30.9229 8.896 30.7229 9.184C30.5229 9.472 30.2389 9.7 29.8709 9.868C29.5109 10.028 29.0949 10.108 28.6229 10.108ZM37.3477 2.98V5.08H40.1677V6.412H37.3477V8.632H40.5277V10H35.6677V1.612H40.5277V2.98H37.3477ZM45.7384 3.256C46.5304 3.256 47.1704 3.508 47.6584 4.012C48.1464 4.508 48.3904 5.204 48.3904 6.1V10H46.7104V6.328C46.7104 5.8 46.5784 5.396 46.3144 5.116C46.0504 4.828 45.6904 4.684 45.2344 4.684C44.7704 4.684 44.4024 4.828 44.1304 5.116C43.8664 5.396 43.7344 5.8 43.7344 6.328V10H42.0544V3.352H43.7344V4.18C43.9584 3.892 44.2424 3.668 44.5864 3.508C44.9384 3.34 45.3224 3.256 45.7384 3.256ZM51.944 4.732V7.948C51.944 8.172 51.996 8.336 52.1 8.44C52.212 8.536 52.396 8.584 52.652 8.584H53.432V10H52.376C50.96 10 50.252 9.312 50.252 7.936V4.732H49.46V3.352H50.252V1.708H51.944V3.352H53.432V4.732H51.944ZM60.8203 6.532C60.8203 6.772 60.8043 6.988 60.7723 7.18H55.9123C55.9523 7.66 56.1203 8.036 56.4163 8.308C56.7123 8.58 57.0763 8.716 57.5083 8.716C58.1323 8.716 58.5763 8.448 58.8403 7.912H60.6523C60.4603 8.552 60.0923 9.08 59.5483 9.496C59.0043 9.904 58.3363 10.108 57.5443 10.108C56.9043 10.108 56.3283 9.968 55.8163 9.688C55.3123 9.4 54.9163 8.996 54.6283 8.476C54.3483 7.956 54.2083 7.356 54.2083 6.676C54.2083 5.988 54.3483 5.384 54.6283 4.864C54.9083 4.344 55.3003 3.944 55.8043 3.664C56.3083 3.384 56.8883 3.244 57.5443 3.244C58.1763 3.244 58.7403 3.38 59.2363 3.652C59.7403 3.924 60.1283 4.312 60.4003 4.816C60.6803 5.312 60.8203 5.884 60.8203 6.532ZM59.0803 6.052C59.0723 5.62 58.9163 5.276 58.6123 5.02C58.3083 4.756 57.9363 4.624 57.4963 4.624C57.0803 4.624 56.7283 4.752 56.4403 5.008C56.1603 5.256 55.9883 5.604 55.9243 6.052H59.0803ZM63.7266 4.384C63.9426 4.032 64.2226 3.756 64.5666 3.556C64.9186 3.356 65.3186 3.256 65.7666 3.256V5.02H65.3226C64.7946 5.02 64.3946 5.144 64.1226 5.392C63.8586 5.64 63.7266 6.072 63.7266 6.688V10H62.0466V3.352H63.7266V4.384Z" fill="black"/>
</g>
</svg>
